<svg width="24" height="24" fill="none" xmlns="http://www.w3.org/2000/svg"><path fill-rule="evenodd" clip-rule="evenodd" d="M2.99 4.873c.317-.524 2.06-2.43 3.303-2.372.372.031.7.256.968.517.613.599 2.368 2.863 2.468 3.34.242 1.168-1.15 1.842-.725 3.02 1.087 2.659 2.96 4.53 5.62 5.616 1.176.427 1.85-.966 3.019-.723.475.1 2.74 1.855 3.34 2.468.26.266.485.596.516.967.046 1.31-1.977 3.077-2.371 3.303-.93.666-2.145.654-3.625-.034-4.13-1.718-10.729-8.193-12.479-12.478-.67-1.472-.716-2.694-.034-3.624Z" fill="#01384D"/></svg>